<?xml version="1.0" encoding="utf-8"?>
<!-- Generator: Adobe Illustrator 25.0.0, SVG Export Plug-In . SVG Version: 6.00 Build 0)  -->
<svg version="1.1" id="Camada_1" xmlns="http://www.w3.org/2000/svg" xmlns:xlink="http://www.w3.org/1999/xlink" x="0px" y="0px"
	 viewBox="0 0 300 75" style="enable-background:new 0 0 300 75;" xml:space="preserve">
<style type="text/css">
	.st0{fill:#FFFFFF;}
	.st1{fill:#FAAF40;}
	.st2{clip-path:url(#SVGID_2_);}
	.st3{clip-path:url(#SVGID_4_);}
	.st4{clip-path:url(#SVGID_6_);}
	.st5{clip-path:url(#SVGID_8_);}
	.st6{clip-path:url(#SVGID_10_);}
	.st7{clip-path:url(#SVGID_12_);}
</style>
<path class="st0" d="M271.8,53.4h7.1c2.7,0,4.5-1.2,4.5-3.7s-1.9-3.7-4.5-3.7h-7.1V53.4z M271.8,66.3h9.5c5,0,7.6-2.6,7.6-7.6v-4.4
	h-0.7c-0.6,3.2-4.5,5-9.1,5h-7c-0.2,0-0.2,0.1-0.2,0.2L271.8,66.3L271.8,66.3z M258.5,49.7l7.3,7v-14L258.5,49.7z M233.7,66.3h32
	v-1.6c0-3.2,1.1-4.4,4.4-4.8v-0.7H260c-0.3,0-0.6-0.1-0.8-0.2l-4.9-5l-4.9,4.9c-0.2,0.2-0.4,0.3-0.6,0.3h-7.3
	c-0.5,0-0.6-0.2-0.2-0.6l9.1-8.9l-9.3-9c-0.3-0.3-0.2-0.6,0.2-0.6h7.4c0.2,0,0.4,0.1,0.6,0.3l5.1,5.1l4.8-5.1
	c0.2-0.2,0.5-0.3,0.7-0.3h19c4.4,0,8.5,1.9,9.1,5h0.7V17.3c0-5-2.6-7.6-7.6-7.6h-47.6c-5,0-7.6,2.6-7.6,7.6v41.4
	C226.1,63.7,228.7,66.3,233.7,66.3z"/>
<g>
	<g>
		<g>
			<path class="st0" d="M91.3,43.8c1.1,0,2.2,0.2,3.3,0.7c1.1,0.5,2.1,1.1,2.8,1.9l-2.3,2.7c-0.5-0.6-1.1-1.1-1.8-1.5
				c-0.7-0.4-1.4-0.5-2.1-0.5c-1.2,0-2.2,0.4-3.1,1.3c-0.8,0.9-1.2,1.9-1.2,3.2c0,1.3,0.4,2.4,1.2,3.2c0.8,0.9,1.8,1.3,3.1,1.3
				c0.6,0,1.3-0.2,2-0.5c0.7-0.3,1.3-0.8,1.9-1.3l2.3,2.4c-0.8,0.9-1.8,1.5-2.9,2c-1.1,0.5-2.3,0.8-3.4,0.8c-2.3,0-4.2-0.8-5.8-2.3
				c-1.5-1.5-2.3-3.4-2.3-5.6c0-2.2,0.8-4,2.3-5.5C87,44.6,89,43.8,91.3,43.8z"/>
		</g>
	</g>
</g>
<g>
	<g>
		<g>
			<path class="st0" d="M115,56.5h-6.7l-1.1,2.8h-4l6.6-15.4h4l6.5,15.4h-4.2L115,56.5z M113.8,53.5l-2.2-5.7l-2.2,5.7H113.8z"/>
		</g>
	</g>
</g>
<g>
	<g>
		<g>
			<path class="st0" d="M127.1,44h6.7c2,0,3.5,0.5,4.6,1.4c1.1,0.9,1.6,2.3,1.6,4c0,1.8-0.5,3.2-1.6,4.2c-1.1,1-2.6,1.5-4.6,1.5H131
				v4.3h-3.9V44z M131,47.1v4.9h2.6c0.9,0,1.5-0.2,2-0.6c0.5-0.4,0.7-1,0.7-1.8c0-0.8-0.2-1.4-0.7-1.8c-0.5-0.4-1.1-0.6-2-0.6H131z"
				/>
		</g>
	</g>
</g>
<g>
	<g>
		<g>
			<path class="st0" d="M151.4,59.3h-3.9V44h3.9V59.3z"/>
		</g>
	</g>
</g>
<g>
	<g>
		<g>
			<path class="st0" d="M171.7,47.1h-4.6v12.2h-3.9V47.1h-4.6V44h13.1V47.1z"/>
		</g>
	</g>
</g>
<g>
	<g>
		<g>
			<path class="st0" d="M189.1,56.5h-6.7l-1.1,2.8h-4l6.6-15.4h4l6.5,15.4h-4.2L189.1,56.5z M187.9,53.5l-2.2-5.7l-2.2,5.7H187.9z"
				/>
		</g>
	</g>
</g>
<g>
	<g>
		<g>
			<path class="st0" d="M205.2,56.1h6.5v3.3h-10.4V44h3.9V56.1z"/>
		</g>
	</g>
</g>
<g>
	<g>
		<g>
			<path class="st0" d="M94.3,25.6h3.4v6c-0.8,0.6-1.8,1.1-3,1.4c-1.2,0.4-2.3,0.6-3.3,0.6c-2.3,0-4.3-0.7-5.9-2.2
				c-1.6-1.5-2.3-3.4-2.3-5.6c0-2.2,0.8-4.1,2.4-5.6c1.6-1.5,3.6-2.2,6-2.2c1.1,0,2.3,0.2,3.4,0.6c1.1,0.4,2.1,1,2.9,1.7l-2.2,2.6
				c-0.6-0.5-1.2-0.9-2-1.2c-0.7-0.3-1.4-0.5-2.2-0.5c-1.3,0-2.3,0.4-3.2,1.3c-0.9,0.9-1.3,1.9-1.3,3.2c0,1.3,0.4,2.4,1.3,3.3
				c0.9,0.9,1.9,1.3,3.2,1.3c0.8,0,1.7-0.2,2.7-0.7V25.6z"/>
		</g>
	</g>
</g>
<g>
	<g>
		<g>
			<path class="st0" d="M115.1,33.4l-2.3-4.3h-3.1v4.3h-3.9V18h6.9c2,0,3.6,0.5,4.7,1.4c1.1,0.9,1.7,2.3,1.7,4c0,2.4-0.9,4-2.8,4.9
				l3.2,5.1H115.1z M109.8,26h3c0.9,0,1.5-0.2,2-0.6c0.5-0.4,0.7-1,0.7-1.8c0-0.8-0.2-1.4-0.7-1.8c-0.5-0.4-1.1-0.6-2-0.6h-3V26z"/>
		</g>
	</g>
</g>
<g>
	<g>
		<g>
			<path class="st0" d="M137.5,30.5h-6.7l-1.1,2.8h-4l6.6-15.4h4l6.5,15.4h-4.2L137.5,30.5z M136.3,27.6l-2.2-5.7l-2.2,5.7H136.3z"
				/>
		</g>
	</g>
</g>
<g>
	<g>
		<g>
			<path class="st0" d="M161,21.1h-7.5v3.5h6.9v3.1h-6.9v5.7h-3.9V18H161V21.1z"/>
		</g>
	</g>
</g>
<g>
	<g>
		<g>
			<path class="st0" d="M175.6,17.9c2.4,0,4.4,0.7,5.9,2.2c1.6,1.5,2.4,3.3,2.4,5.5c0,2.2-0.8,4.1-2.4,5.6c-1.6,1.5-3.6,2.3-5.9,2.3
				s-4.4-0.7-5.9-2.2c-1.6-1.5-2.4-3.4-2.4-5.6c0-2.2,0.8-4.1,2.4-5.6C171.3,18.6,173.3,17.9,175.6,17.9z M175.7,21.2
				c-1.2,0-2.2,0.4-3.1,1.3c-0.8,0.9-1.3,1.9-1.3,3.2c0,1.3,0.4,2.4,1.3,3.3c0.9,0.9,1.9,1.3,3.1,1.3s2.2-0.4,3-1.3
				c0.8-0.9,1.2-2,1.2-3.3c0-1.3-0.4-2.4-1.2-3.2C177.9,21.6,176.9,21.2,175.7,21.2z"/>
		</g>
	</g>
</g>
<path class="st1" d="M192.8,20.4H213v12.7h-20.3V20.4"/>
<g>
	<defs>
		<rect id="SVGID_1_" x="31.1" y="3.9" width="12.2" height="13.6"/>
	</defs>
	<clipPath id="SVGID_2_">
		<use xlink:href="#SVGID_1_"  style="overflow:visible;"/>
	</clipPath>
	<g class="st2">
		<path class="st0" d="M31.8,13.9l4.9,2.7c0.2,0.1,0.3,0.2,0.5,0.2c0.2,0,0.4-0.1,0.5-0.2l4.9-2.7c0.3-0.2,0.5-0.5,0.5-0.9V7.6
			c0-0.4-0.2-0.8-0.5-0.9L37.8,4c-0.3-0.2-0.7-0.2-1,0l-4.9,2.7c-0.3,0.2-0.5,0.5-0.5,0.9V13C31.3,13.4,31.5,13.8,31.8,13.9z
			 M33.5,8.3l3.8-2.1L41,8.3v4.1l-3.8,2.1l-3.8-2.1V8.3z"/>
	</g>
</g>
<g>
	<defs>
		<rect id="SVGID_3_" x="31.1" y="59" width="12.2" height="13.7"/>
	</defs>
	<clipPath id="SVGID_4_">
		<use xlink:href="#SVGID_3_"  style="overflow:visible;"/>
	</clipPath>
	<g class="st3">
		<path class="st0" d="M42.7,62.7L37.8,60c-0.3-0.2-0.7-0.2-1,0l-4.9,2.7c-0.3,0.2-0.5,0.5-0.5,0.9V69c0,0.4,0.2,0.8,0.5,0.9
			l4.9,2.7c0.2,0.1,0.3,0.2,0.5,0.2c0.2,0,0.4-0.1,0.5-0.2l4.9-2.7c0.3-0.2,0.5-0.5,0.5-0.9v-5.4C43.2,63.2,43,62.8,42.7,62.7z"/>
	</g>
</g>
<g>
	<defs>
		<rect id="SVGID_5_" x="7" y="45.6" width="13" height="13.5"/>
	</defs>
	<clipPath id="SVGID_6_">
		<use xlink:href="#SVGID_5_"  style="overflow:visible;"/>
	</clipPath>
	<g class="st4">
		<path class="st0" d="M18.3,48.7L13.5,46c-0.3-0.2-0.7-0.2-1,0l-4.9,2.7C7.2,48.9,7,49.2,7,49.6V55c0,0.4,0.2,0.8,0.5,0.9l4.9,2.7
			c0.2,0.1,0.3,0.2,0.5,0.2c0.2,0,0.4-0.1,0.5-0.2l4.9-2.7c0.3-0.2,0.5-0.5,0.5-0.9v-5.4C18.9,49.2,18.6,48.8,18.3,48.7z M16.7,54.3
			l-3.8,2.1l-3.8-2.1v-4.1l3.8-2.1l3.8,2.1V54.3z"/>
	</g>
</g>
<g>
	<defs>
		<rect id="SVGID_7_" x="55.6" y="45.6" width="12.1" height="13.5"/>
	</defs>
	<clipPath id="SVGID_8_">
		<use xlink:href="#SVGID_7_"  style="overflow:visible;"/>
	</clipPath>
	<g class="st5">
		<path class="st0" d="M67,48.7L62.1,46c-0.3-0.2-0.7-0.2-1,0l-4.9,2.7c-0.3,0.2-0.5,0.5-0.5,0.9V55c0,0.4,0.2,0.8,0.5,0.9l4.9,2.7
			c0.2,0.1,0.3,0.2,0.5,0.2c0.2,0,0.4-0.1,0.5-0.2l4.9-2.7c0.3-0.2,0.5-0.5,0.5-0.9v-5.4C67.6,49.2,67.3,48.8,67,48.7z M65.4,54.3
			l-3.8,2.1l-3.8-2.1v-4.1l3.8-2.1l3.8,2.1V54.3z"/>
	</g>
</g>
<path class="st0" d="M30.1,15.3c-0.5-0.5-0.8-1.2-0.9-2l-9.2,5.4c0.5,0.5,0.9,1.1,1,1.9L30.1,15.3z"/>
<g>
	<defs>
		<rect id="SVGID_9_" x="7" y="16.2" width="13" height="14.7"/>
	</defs>
	<clipPath id="SVGID_10_">
		<use xlink:href="#SVGID_9_"  style="overflow:visible;"/>
	</clipPath>
	<g class="st6">
		<path class="st0" d="M18.3,20.2l-4.9-2.7c-0.3-0.2-0.7-0.2-1,0l-4.9,2.7C7.2,20.4,7,20.7,7,21.1v5.4c0,0.4,0.2,0.8,0.5,0.9
			l4.9,2.7c0.2,0.1,0.3,0.2,0.5,0.2c0.2,0,0.4-0.1,0.5-0.2l4.9-2.7c0.3-0.2,0.5-0.5,0.5-0.9v-5.4C18.9,20.7,18.6,20.3,18.3,20.2z"/>
	</g>
</g>
<g>
	<defs>
		<rect id="SVGID_11_" x="55.6" y="16.2" width="12.1" height="14.7"/>
	</defs>
	<clipPath id="SVGID_12_">
		<use xlink:href="#SVGID_11_"  style="overflow:visible;"/>
	</clipPath>
	<g class="st7">
		<path class="st0" d="M67,20.2l-4.9-2.7c-0.3-0.2-0.7-0.2-1,0l-4.9,2.7c-0.3,0.2-0.5,0.5-0.5,0.9v5.4c0,0.4,0.2,0.8,0.5,0.9
			l4.9,2.7c0.2,0.1,0.3,0.2,0.5,0.2c0.2,0,0.4-0.1,0.5-0.2l4.9-2.7c0.3-0.2,0.5-0.5,0.5-0.9v-5.4C67.6,20.7,67.3,20.3,67,20.2z"/>
	</g>
</g>
<path class="st0" d="M47,43.1v-9.7c0-0.4-0.2-0.8-0.5-0.9l-8.7-4.8c-0.3-0.2-0.8-0.2-1.1,0l-8.7,4.8c-0.3,0.2-0.5,0.5-0.5,0.9v9.7
	c0,0.4,0.2,0.8,0.5,0.9l8.7,4.8c0.2,0.1,0.3,0.2,0.5,0.2c0.2,0,0.4-0.1,0.5-0.2l8.7-4.8C46.8,43.9,47,43.5,47,43.1z"/>
<path class="st0" d="M54.6,18.7l-9.2-5.4c-0.1,0.8-0.4,1.5-0.9,2l9.1,5.3C53.7,19.8,54,19.1,54.6,18.7z"/>
<path class="st0" d="M62.7,43.9V32.2c-0.3,0.1-0.7,0.2-1.1,0.2c-0.4,0-0.8-0.1-1.1-0.2v11.7C61.2,43.6,62,43.6,62.7,43.9z"/>
<path class="st0" d="M53.7,55.9l-9.2,5.4c0.5,0.5,0.8,1.2,0.9,2l9.6-5.6C54.4,57.3,53.9,56.6,53.7,55.9z"/>
<path class="st0" d="M19.5,57.7l9.6,5.6c0.1-0.8,0.4-1.5,0.9-2l-9.2-5.4C20.7,56.6,20.2,57.3,19.5,57.7z"/>
<path class="st0" d="M14,43.9V32.2c-0.3,0.1-0.7,0.2-1.1,0.2s-0.8-0.1-1.1-0.2v11.7C12.5,43.6,13.3,43.6,14,43.9z"/>
<path class="st0" d="M38.3,25.6v-6.9c-0.3,0.1-0.7,0.2-1.1,0.2c-0.4,0-0.8-0.1-1.1-0.2v6.8C36.9,25.3,37.6,25.3,38.3,25.6z"/>
<path class="st0" d="M36.2,51v6.8c0.7-0.3,1.5-0.3,2.2,0V51c-0.3,0.1-0.7,0.2-1.1,0.2C36.9,51.2,36.5,51.1,36.2,51z"/>
<path class="st0" d="M25.5,44.1l-5.4,3.2c0.5,0.5,0.9,1.2,0.9,2l5.8-3.5C26.2,45.4,25.7,44.8,25.5,44.1z"/>
<path class="st0" d="M53.6,27.2l-5.9,3.6c0.7,0.4,1.1,1,1.3,1.7l5.8-3.4C54.2,28.6,53.8,28,53.6,27.2z"/>
<path class="st0" d="M26.9,30.7L21,27.1c-0.2,0.7-0.5,1.4-1.1,1.8l5.7,3.4C25.8,31.7,26.3,31.1,26.9,30.7z"/>
<path class="st0" d="M47.8,45.8l5.7,3.5c0.1-0.8,0.4-1.5,0.9-1.9L49,44C48.8,44.8,48.4,45.3,47.8,45.8z"/>
</svg>
